<svg width="28" height="22" viewBox="0 0 28 22" fill="#fff" xmlns="http://www.w3.org/2000/svg">
<path fill-rule="evenodd" clip-rule="evenodd" d="M0.1875 1.08337C0.1875 0.496571 0.663197 0.020874 1.25 0.020874H26.75C27.3368 0.020874 27.8125 0.496571 27.8125 1.08337C27.8125 1.67018 27.3368 2.14587 26.75 2.14587H1.25C0.663197 2.14587 0.1875 1.67018 0.1875 1.08337ZM0.1875 11C0.1875 10.4132 0.663197 9.93754 1.25 9.93754H26.75C27.3368 9.93754 27.8125 10.4132 27.8125 11C27.8125 11.5868 27.3368 12.0625 26.75 12.0625H1.25C0.663197 12.0625 0.1875 11.5868 0.1875 11ZM1.25 19.8542C0.663197 19.8542 0.1875 20.3299 0.1875 20.9167C0.1875 21.5035 0.663197 21.9792 1.25 21.9792H26.75C27.3368 21.9792 27.8125 21.5035 27.8125 20.9167C27.8125 20.3299 27.3368 19.8542 26.75 19.8542H1.25Z" fill="#fff"/>
</svg>
