<svg width="18" height="18" viewBox="0 0 18 18" fill="#fff" xmlns="http://www.w3.org/2000/svg">
<path fill-rule="evenodd" clip-rule="evenodd" d="M0.821441 0.821625C1.23637 0.406693 1.90911 0.406693 2.32404 0.821625L8.99982 7.4974L15.6756 0.821625C16.0905 0.406693 16.7633 0.406693 17.1782 0.821625C17.5931 1.23656 17.5931 1.9093 17.1782 2.32423L10.5024 9L17.1782 15.6758C17.5931 16.0907 17.5931 16.7634 17.1782 17.1784C16.7633 17.5933 16.0905 17.5933 15.6756 17.1784L8.99982 10.5026L2.32404 17.1784C1.90911 17.5933 1.23637 17.5933 0.821441 17.1784C0.406509 16.7634 0.406509 16.0907 0.821441 15.6758L7.49721 9L0.821441 2.32423C0.406509 1.90929 0.406509 1.23656 0.821441 0.821625Z" fill="#000"/>
</svg>
